<?xml version="1.0" encoding="UTF-8"?>
<svg id="SVGDoc" width="170" height="36" xmlns="http://www.w3.org/2000/svg" version="1.1" xmlns:xlink="http://www.w3.org/1999/xlink" xmlns:avocode="https://avocode.com/" viewBox="0 0 170 36"><defs></defs><desc>Generated with Avocode.</desc><g><g><title>ayakkabionline-kare copy</title><g><title>Group</title><g><title>Path</title><path d="M16.74982,14.91c-1.63538,0.53526 -2.26984,1.72903 -2.26984,3.09c0,1.41044 0.63446,2.60422 2.26984,3.143c-0.08813,-0.99305 -0.13391,-2.04245 -0.13391,-3.143c0.00354,-1.06163 0.04932,-2.10751 0.13391,-3.09" fill="#e5493f" fill-opacity="1"></path></g><g><title>Path</title><path d="M19.92603,18c0,-1.14978 0.07397,-2.26961 0.15509,-3.31901c-0.32074,-0.05283 -0.69788,-0.08099 -1.13843,-0.08099c-0.87408,0 -1.59662,0.11269 -2.19226,0.30637c-0.08813,0.98249 -0.13043,2.02484 -0.13043,3.09363c0,1.09692 0.04584,2.14984 0.13391,3.13937c0.59216,0.19368 1.3147,0.30285 2.18878,0.30285c0.44409,0 0.82123,-0.02465 1.14197,-0.081c-0.08466,-1.05644 -0.15863,-2.18331 -0.15863,-3.36122" fill="#f4a63f" fill-opacity="1"></path></g><g><title>Path</title><path d="M20.08508,21.36375c2.06189,-0.36375 1.83276,-1.70438 1.83276,-3.36375c0,-1.61209 0.2326,-3 -1.83276,-3.32c-0.08508,1.0494 -0.15509,2.16923 -0.15509,3.32c0,1.18044 0.07001,2.30731 0.15509,3.36375" fill="#f3b940" fill-opacity="1"></path></g><g><title>Path</title><path d="M23.276,16.31c-0.20441,0.52822 -0.276,1.10222 -0.276,1.69c0,0.62713 0.07159,1.20817 0.276,1.73287c-0.02466,-0.56344 -0.0423,-1.13391 -0.0423,-1.73287c0,-0.56665 0.0141,-1.13361 0.0423,-1.69" fill="#99c43f" fill-opacity="1"></path></g><g><title>Path</title><path d="M26.79333,13.75c-1.94556,0.37328 -3.04169,1.32407 -3.52106,2.55659c-0.0282,0.55287 -0.0423,1.11983 -0.0423,1.69341c0,0.5885 0.0141,1.1625 0.0423,1.72594c0.48291,1.27406 1.57904,2.18684 3.5246,2.55306c-0.16565,-1.279 -0.25732,-2.76083 -0.25732,-4.279c0,-1.49973 0.09167,-2.94001 0.25378,-4.25" fill="#bfd672" fill-opacity="1"></path></g><g><title>Path</title><path d="M30.11743,22.39016c-0.17267,-1.39016 -0.26782,-2.8207 -0.26782,-4.39016c0,-1.53296 0.09161,-3 0.26428,-4.34309c-0.44055,-0.04226 -0.8952,-0.06691 -1.36047,-0.06691c-0.75342,0 -1.38513,0.05987 -1.95966,0.16903c-0.16211,1.30999 -0.25378,2.75027 -0.25378,4.24097c0,1.53072 0.09167,3 0.25732,4.29156c0.578,0.10916 1.2027,0.17255 1.95612,0.17255c0.46881,0 0.91992,-0.02465 1.36401,-0.07395" fill="#23a95e" fill-opacity="1"></path></g><g><title>Path</title><path d="M32.09003,18.28352v0v3.71648c0.44055,-0.09641 0.85645,-0.23726 1.24768,-0.4063c-0.10577,-1.04234 -0.16919,-2.15514 -0.17621,-3.3137h-1.07147v0z" fill="#4ba5be" fill-opacity="1"></path></g><g><title>Path</title><path d="M30.11786,22.38973c0.47583,-0.0493 0.93402,-0.12325 1.37457,-0.21833v-8.29307c-0.44055,-0.09508 -0.90228,-0.16903 -1.37811,-0.21833c-0.17267,1.34 -0.26434,2.81013 -0.26434,4.34c0,1.56903 0.09521,3 0.26788,4.38973" fill="#68acbf" fill-opacity="1"></path></g><g><title>Path</title><path d="M32.09003,14v0v3.76332v0h1.06793c0.00702,-1.15504 0.06696,-2.26782 0.17267,-3.3137c-0.38416,-0.16551 -0.80005,-0.30989 -1.2406,-0.44962" fill="#4ba5be" fill-opacity="1"></path></g><g><title>Path</title><path d="M36.45197,17.74258c-0.14453,-1.34872 -1.33936,-2.53194 -3.11926,-3.29258c-0.10571,1.04588 -0.16565,2.15866 -0.17273,3.31723h0.30664v0v-0.24299v0h2.02313v0v0.24299v0h0.96222c0.01056,0.07748 0.0141,0.15495 0.0141,0.23277v-0.2539v0z" fill="#a4649e" fill-opacity="1"></path></g><g><title>Path</title><path d="M36.45197,18.28185v0h-0.96222v0v0.23946v0h-2.02313v0v-0.23946v0h-0.30664c0.00708,1.15504 0.0705,2.26783 0.17627,3.31371c1.77637,-0.75712 2.97119,-1.94033 3.11572,-3.28905l0.0141,0.00352v0v-0.25002c0,0.07395 -0.00708,0.1479 -0.0141,0.22186" fill="#a4649e" fill-opacity="1"></path></g><g><title>Path</title><path d="M29.21735,10.08142c-1.81519,1.81356 -3.31311,1.61636 -4.35638,0.57048c-1.04327,-1.04235 -1.2442,-2.53898 0.57098,-4.35254c1.81512,-1.81356 4.13434,-2.43686 5.17761,-1.3945c1.04675,1.09514 0.39044,3.36301 -1.39221,5.17656" fill="#878787" fill-opacity="1"></path></g><g><title>Path</title><path d="M24.60822,13.83555c-1.39929,1.39802 -2.5553,1.24308 -3.35895,0.44018c-0.80359,-0.80642 -0.95868,-1.95794 0.44061,-3.35596c1.39923,-1.40155 1.9209,-0.61274 2.72803,0.19016c0.80359,0.80642 1.58209,1.32407 0.19031,2.72562" fill="#878787" fill-opacity="1"></path></g><g><title>Path</title><path d="M20.27032,4.64482c0,2.56363 -1.19836,3.48274 -2.67517,3.48274c-1.47681,0 -2.67517,-0.91559 -2.67517,-3.48274c0,-2.56363 1.19836,-4.64482 2.67517,-4.64482c1.47681,0 2.67865,2.07767 2.67517,4.64482" fill="#b2b2b2" fill-opacity="1"></path></g><g><title>Path</title><path d="M19.65729,10.55385c0,1.97907 -0.92346,2.68688 -2.06543,2.68688c-1.13843,0 -2.06183,-0.70781 -2.06183,-2.68688c0,-1.97907 0.9234,-1.78891 2.06183,-1.78891c1.13843,0 2.06543,-0.18664 2.06543,1.78891" fill="#b2b2b2" fill-opacity="1"></path></g><g><title>Path</title><path d="M4.64893,15.14c2.56586,0 3.48578,1.1973 3.48578,2.6728c0,1.47549 -0.91638,2.67279 -3.48578,2.67279c-2.56592,0 -4.64893,-1.1973 -4.64893,-2.67279c0,-1.47549 2.07953,-2.6728 4.64893,-2.6728" fill="#c6c6c6" fill-opacity="1"></path></g><g><title>Path</title><path d="M10.56543,15.75c1.97729,0 2.68573,0.92263 2.68573,2.06006c0,1.13744 -0.7049,2.06358 -2.68573,2.06358c-1.98083,0 -1.79047,-0.87364 -1.79047,-2.06358c0,-1.13743 -0.19037,-2.06006 1.79047,-2.06006" fill="#c6c6c6" fill-opacity="1"></path></g><g><title>Path</title><path d="M10.1864,6.94906c1.8136,1.81356 1.6178,3.30667 0.57098,4.35254c-1.04327,1.04236 -2.53766,1.24308 -4.35632,-0.57048c-1.81519,-1.81355 -2.40106,-4.13068 -1.40106,-5.17304c1.05212,-1.04587 3.36774,-0.4261 5.1864,1.39098" fill="#c6c6c6" fill-opacity="1"></path></g><g><title>Path</title><path d="M13.93726,11.55825c1.39929,1.44175 1.24774,2.55306 0.44061,3.35596c-0.80713,0.80289 -1.95972,0.95784 -3.37787,-0.44019c-1.38031,-1.39802 -0.59436,-1.9192 0.20923,-2.72561c0.79077,-0.8029 1.3288,-1.58819 2.72803,-0.19016" fill="#c6c6c6" fill-opacity="1"></path></g><g><title>Path</title><path d="M15.53003,31.35274c0,2.56715 1.1983,4.64726 2.67511,4.64726v0c1.48035,0 2.67517,-2.08011 2.67871,-4.64726c0,-2.56364 -1.19836,-3.48273 -2.67871,-3.48273c-1.47681,0 -2.67511,0.91558 -2.67511,3.48273" fill="#ededed" fill-opacity="1"></path></g><g><title>Path</title><path d="M18.2019,22.76c-1.13849,0 -2.06189,0.70782 -2.06189,2.68687c0,1.66214 0.65204,1.79595 1.53668,1.79595c0.16919,0 0.3233,-0.00704 0.52521,-0.00704c0.18323,0 0.3595,0.00704 0.52515,0.00704c0.88464,0 1.53668,-0.13381 1.53668,-1.79595c0.00354,-1.98259 -0.91992,-2.68687 -2.06183,-2.68687" fill="#ededed" fill-opacity="1"></path></g><g><title>Path</title><path d="M25.55334,29.5242c-1.81519,-1.81356 -1.6178,-3.31019 -0.55334,-4.35254c1,-1.04588 2.52356,-1.24308 4.33875,0.57048c1.81512,1.81355 2.43896,4.13068 1.39569,5.17303c-1.05029,1.08482 -3.36597,0.42258 -5.18109,-1.39098" fill="#f6f6f6" fill-opacity="1"></path></g><g><title>Path</title><path d="M21.80127,24.90611c-1.39929,-1.39803 -1.24768,-2.55306 -0.44055,-3.35596c0.80713,-0.80642 1.95966,-0.95784 3.36243,0.44985c1.39923,1.38836 0.61328,1.90954 -0.19385,2.71595c-0.81067,0.8029 -1.3288,1.58819 -2.72803,0.19016" fill="#f6f6f6" fill-opacity="1"></path></g><g><title>Path</title><path d="M6.75,25.56214c1.81512,-1.81356 3.30957,-1.61636 4.35632,-0.56214c1.04327,1 1.2442,2.53064 -0.57098,4.3442c-1.81512,1.81355 -4.13428,2.43685 -5.17755,1.3945c-1.04681,-1.04236 -0.42297,-3.36301 1.39221,-5.17656" fill="#dadada" fill-opacity="1"></path></g><g><title>Path</title><path d="M11.36871,21.81893c1.39923,-1.39802 2.5553,-1.24308 3.35889,-0.44018c0.80365,0.80642 0.95874,1.95794 -0.44055,3.35596c-1.39923,1.40155 -1.9209,0.61274 -2.72449,-0.19368c-0.80713,-0.80289 -1.56256,-1.32407 -0.19385,-2.7221" fill="#dadada" fill-opacity="1"></path></g><g><title>Path</title><path d="M42.50092,24.35255v0l0.01062,0.01057v0l-0.01062,-0.01409v0z" fill="#ffffff" fill-opacity="1"></path></g></g><g><title>Group</title><g><title>Path</title><path d="M60.18579,27.35598c-1.41522,0 -2.71246,-0.21023 -3.18579,-0.35598c-0.23425,0 -0.32953,-0.13606 -0.32953,-0.35972v-0.52783c0,-0.18788 0.15424,-0.32207 0.32953,-0.32207h0.06964c0.57153,0.07603 2.00482,0.20962 3.11163,0.20962c1.71906,0 2.25427,-0.3975 2.25427,-2.37463v-0.09393c-0.43555,0.12971 -1.51044,0.22366 -2.11823,0.22366c-2.19537,0 -4.31732,-0.75509 -4.31732,-3.89612v-6.21322c0,-0.20577 0.21234,-0.37575 0.42102,-0.37575h0.91626c0.20862,0 0.38098,0.16998 0.38098,0.37575v6.21322c0,2.01739 0.99335,2.48707 2.59454,2.48707c0.55334,0 1.52856,-0.1163 2.08197,-0.24602v-8.45427c0,-0.20577 0.17236,-0.37575 0.38098,-0.37575h0.91626c0.20862,0 0.38098,0.16998 0.38098,0.37575v9.97962c0.00909,2.95676 -1.28815,3.73061 -3.88721,3.73061" fill="#383432" fill-opacity="1"></path></g><g><title>Path</title><path d="M82.61365,23.63203v0h-1.37433c-0.23932,0 -0.23932,-0.05814 -0.44,-0.24603l-3.79932,-4.63419v0v4.5c0,0.21024 -0.17407,0.37574 -0.38275,0.37574h-0.91626c-0.20862,0 -0.38098,-0.16998 -0.38098,-0.37574v-13.40606c0,-0.20577 0.17236,-0.37575 0.38098,-0.37575h0.91626c0.2132,0 0.38275,0.16998 0.38275,0.37575v7.8325v0l3.81744,-4.23608c0.1134,-0.1342 0.18256,-0.16998 0.38104,-0.16998h1.33807c0.19049,0 0.28577,0.09393 0.28577,0.20576c0,0.07605 -0.03632,0.15209 -0.09528,0.20577l-4.2002,4.48211v0l4.24103,5.04572c0.03632,0.03579 0.05444,0.11183 0.05444,0.16998c0,0.1342 -0.07709,0.2505 -0.20868,0.2505" fill="#383432" fill-opacity="1"></path></g><g><title>Path</title><path d="M92.07916,23.63203v0h-1.37439c-0.20868,0 -0.28577,-0.05814 -0.44,-0.24603l-3.79651,-4.63419v0v4.5c0,0.21024 -0.17236,0.37574 -0.38098,0.37574h-0.91626c-0.17102,0 -0.38104,-0.16998 -0.38104,-0.37574v-13.40606c0,-0.20577 0.21002,-0.37575 0.38104,-0.37575h0.91626c0.20862,0 0.38098,0.16998 0.38098,0.37575v7.8325v0l3.81921,-4.23608c0.1134,-0.1342 0.19049,-0.16998 0.38098,-0.16998h1.33154c0.19708,0 0.2923,0.09393 0.2923,0.20576c0,0.07605 -0.04077,0.15209 -0.09521,0.20577l-4.19708,4.48211v0l4.23792,5.04572c0.03625,0.03579 0.05896,0.11183 0.05896,0.16998c-0.00458,0.1342 -0.08167,0.2505 -0.21771,0.2505" fill="#383432" fill-opacity="1"></path></g><g><title>Shape</title><path d="M108.77008,17.75876c0,-2.01292 -0.6123,-3.16252 -2.48108,-3.16252c-0.59424,0 -1.6012,0.01789 -2.23169,0.12972v7.47913c0.64868,0.05814 1.58307,0.11182 2.23169,0.11182c1.89142,0 2.48108,-1.1496 2.48108,-3.20279zM106.28442,23.76622c-1.14301,0 -2.28442,-0.09393 -3.51074,-0.32206c-0.34473,-0.05816 -0.40369,-0.16999 -0.40369,-0.44416v-13.17215c0,-0.18787 0.13611,-0.35785 0.34473,-0.35785h0.97522c0.19049,0 0.36285,0.15209 0.36285,0.35785v3.50249c0.72577,-0.12972 1.62384,-0.18787 2.23163,-0.18787c2.77142,0 4.16394,1.65506 4.16394,4.61182v1.35537c0,2.83151 -1.29724,4.65656 -4.16394,4.65656" fill="#383432" fill-opacity="1"></path></g><g><title>Shape</title><path d="M113.33997,23.63386v0h-0.91626c-0.20868,0 -0.42371,-0.16998 -0.42371,-0.37575v-9.60387c0,-0.20577 0.21503,-0.37575 0.42371,-0.37575h0.91626c0.20862,0 0.38098,0.16998 0.38098,0.37575v9.60387c0,0.20577 -0.17236,0.37575 -0.38098,0.37575M113.37622,11.61895v0h-0.97522c-0.20862,0 -0.401,-0.16998 -0.401,-0.37575v-1.50745c0,-0.20577 0.19238,-0.37575 0.401,-0.37575h0.97522c0.20868,0 0.38104,0.16998 0.38104,0.37575v1.50745c0,0.20577 -0.17236,0.37575 -0.38104,0.37575" fill="#383432" fill-opacity="1"></path></g><g><title>Shape</title><path d="M71.93085,19.80789c0,0.19211 -0.04083,0.38916 -0.10431,0.57256c-0.29028,0.83648 -1.11584,1.61955 -2.4176,1.61955c-0.92987,0 -1.7146,-0.51915 -1.7146,-1.68217c0,-1.91899 2.25433,-2.26342 4.23651,-2.22316zM73.85406,23.12698c-0.1225,-0.67098 -0.16333,-1.50746 -0.16333,-2.36183v-3.69036c0,-1.97714 -0.74384,-4.07479 -3.80103,-4.07479c-1.25647,0 -2.45844,0.38891 -3.284,0.91674l0.39429,1.18091c0.72156,-0.44731 1.69226,-0.73359 2.62207,-0.73359c2.04572,0 2.27246,1.46719 2.27246,2.28131v0.20576c-3.89453,-0.02235 -6.01453,1.28381 -6.01453,3.668c0,1.42693 1.03418,2.83151 3.05719,2.83151c1.42426,0 2.49927,-0.69334 3.06281,-1.4672h0.05786l0.14514,1.24355z" fill="#383432" fill-opacity="1"></path></g><g><title>Shape</title><path d="M98.93536,19.80789c0,0.19211 -0.04083,0.38916 -0.10431,0.57256c-0.29028,0.83648 -1.11584,1.61955 -2.4176,1.61955c-0.92987,0 -1.7146,-0.51915 -1.7146,-1.68217c0,-1.91899 2.30115,-2.26342 4.23651,-2.22316zM100.85406,23.12698c-0.1225,-0.67098 -0.16333,-1.50746 -0.16333,-2.36183v-3.69036c0,-1.97714 -0.74384,-4.07479 -3.80103,-4.07479c-1.25647,0 -2.45844,0.38891 -3.284,0.91674l0.39429,1.18091c0.72156,-0.44731 1.69226,-0.73359 2.62207,-0.73359c2.04572,0 2.27246,1.46719 2.27246,2.28131v0.20576c-3.89453,-0.02235 -6.01453,1.28381 -6.01453,3.668c0,1.42693 1.02966,2.83151 3.05719,2.83151c1.42426,0 2.49927,-0.69334 3.06281,-1.4672h0.05786l0.14514,1.24355z" fill="#383432" fill-opacity="1"></path></g><g><title>Shape</title><path d="M122.3374,17.73393c0,-1.91898 -0.78467,-3.14463 -2.57635,-3.14463c-1.76105,0 -2.55823,1.20328 -2.55823,3.14463v1.4314c0,1.92346 0.79718,3.14465 2.55823,3.14465c1.77808,0 2.57635,-1.20776 2.57635,-3.14465zM119.76105,23.75928c-2.76105,0 -4.24103,-1.82505 -4.24103,-4.59393v-1.43141c0,-2.73394 1.47998,-4.59394 4.24103,-4.59394c2.80768,0 4.23895,1.86 4.23895,4.59394v1.43141c0,2.76888 -1.43127,4.59393 -4.23895,4.59393" fill="#e94e1b" fill-opacity="1"></path></g><g><title>Path</title><path d="M134,23.62956v0h-1c-0.23462,0 -0.36615,-0.16998 -0.36615,-0.37574v-6.72316c0,-1.41352 -0.36292,-1.95925 -1.63385,-1.95925h-1.38708c-1.29724,0 -1.61292,0.54573 -1.61292,1.95925v6.72316c0,0.21024 -0.18329,0.37574 -0.39191,0.37574h-0.99335c-0.20868,0 -0.34473,-0.16998 -0.34473,-0.37574v-6.72316c0,-2.89861 2.04114,-3.39066 3.33838,-3.39066h1.3916c1.26642,0 3.30756,0.48757 3.30756,3.39066v6.72316c0.00452,0.20576 -0.13153,0.37574 -0.30756,0.37574" fill="#e94e1b" fill-opacity="1"></path></g><g><title>Path</title><path d="M138.43811,23.63755v0h-0.99341c-0.19049,0 -0.34473,-0.16998 -0.34473,-0.37574v-13.42396c0,-0.18787 0.13159,-0.35785 0.34473,-0.35785h0.99341c0.19049,0 0.34473,0.15209 0.34473,0.35785v13.42396c0,0.1834 -0.13611,0.37574 -0.34473,0.37574" fill="#e94e1b" fill-opacity="1"></path></g><g><title>Shape</title><path d="M143.07538,23.63386v0h-0.9162c-0.15918,0 -0.38104,-0.16998 -0.38104,-0.37575v-9.60387c0,-0.20577 0.22186,-0.37575 0.38104,-0.37575h0.9162c0.20868,0 0.38104,0.16998 0.38104,0.37575v9.60387c0,0.20577 -0.17236,0.37575 -0.38104,0.37575M143.11169,11.61895v0h-0.9707c-0.21313,0 -0.38098,-0.16998 -0.38098,-0.37575v-1.50745c0,-0.20577 0.17236,-0.37575 0.38098,-0.37575h0.9707c0.2132,0 0.38098,0.16998 0.38098,0.37575v1.50745c0,0.20577 -0.17236,0.37575 -0.38098,0.37575" fill="#e94e1b" fill-opacity="1"></path></g><g><title>Path</title><path d="M154,23.62956v0h-1c-0.22467,0 -0.36072,-0.16998 -0.36072,-0.37574v-6.72316c0,-1.41352 -0.36285,-1.95925 -1.63928,-1.95925h-1.37708c-1.29724,0 -1.62292,0.54573 -1.62292,1.95925v6.72316c0,0.21024 -0.17328,0.37574 -0.3819,0.37574h-0.99335c-0.20868,0 -0.34473,-0.16998 -0.34473,-0.37574v-6.72316c0,-2.89861 2.04114,-3.39066 3.3429,-3.39066h1.37708c1.27643,0 3.32208,0.48757 3.32208,3.39066v6.72316c0,0.20576 -0.13153,0.37574 -0.32208,0.37574" fill="#e94e1b" fill-opacity="1"></path></g><g><title>Shape</title><path d="M163.35028,17.62658c0,-2.01739 -0.82098,-3.0328 -2.49927,-3.0328c-1.64197,0 -2.55823,1.09145 -2.55823,3.0328v0.09394v0h5.06207v0v-0.09394v0zM164.68835,19v0h-6.40009v0v0.20561c0,2.16501 1.03418,3.16252 2.78955,3.16252c1.10675,0 2.38586,-0.12972 3.26581,-0.26392h0.09528c0.15424,0 0.30389,0.07605 0.30389,0.26392v0.63187c0,0.25382 -0.07709,0.38354 -0.38098,0.44169c-1.08862,0.21024 -2.00488,0.32207 -3.284,0.32207c-2.19537,0 -4.46783,-1.0333 -4.46783,-4.65209v-1.31958c0,-2.67495 1.51044,-4.65209 4.24103,-4.65209c2.78955,0 4.20026,1.95924 4.20026,4.63419v0.78728c0,0.2505 -0.13611,0.43853 -0.36292,0.43853" fill="#e94e1b" fill-opacity="1"></path></g><g><title>Path</title><path d="M54.11078,20.76515v0v-3.69036c0,-1.97714 -0.7439,-4.07479 -3.80109,-4.07479c-1.30969,0 -2.45844,0.38891 -3.30969,0.91674l0.43848,1.18091c0.70306,-0.44731 1.67377,-0.73359 2.56152,-0.73359c2.08777,0 2.31458,1.46719 2.31458,2.28131v0.20129c-3.86456,-0.02237 -6.01459,1.28381 -6.01459,3.66799c0,0.6844 0.24042,1.36432 0.70001,1.8832l2.1712,-1.91898v0l-1.40613,-1.57008v0l2.53101,-0.5502v0l2.53101,-0.5502v0l-0.82709,2.48708v0l-0.76953,2.48707v0l-1.40155,-1.5656v0l-1.896,1.84294c0.40369,0.17892 0.87543,0.28181 1.42426,0.28181c1.42426,0 2.49927,-0.69334 3.05719,-1.4672h0.06348v0l0.14514,1.24354v0h1.65106c-0.1225,-0.66203 -0.16327,-1.49403 -0.16327,-2.35287" fill="#383432" fill-opacity="1"></path></g><g><title>Shape</title><path d="M167.16919,11.16245c0.05896,-0.01342 0.16327,-0.02684 0.30841,-0.02684c0.35382,0 0.5224,0.14761 0.5224,0.36233c0,0.24155 -0.25928,0.34443 -0.56775,0.34443h-0.26306zM167.15558,12.22706h0.26306c0.30847,0 0.45361,0.1163 0.49896,0.37574c0.0824,0.27287 0.0824,0.49205 0.19049,0.57704h0.59875c-0.05896,-0.08499 -0.10431,-0.17984 -0.17688,-0.59045c-0.07263,-0.3176 -0.20416,-0.49205 -0.44,-0.58939c0.2948,-0.10395 0.49896,-0.30525 0.49896,-0.56469c0,-0.22813 -0.10437,-0.43531 -0.2359,-0.51889c-0.17688,-0.10288 -0.35303,-0.17445 -0.83459,-0.17445c-0.39459,0 -0.70306,0.02684 -0.92078,0.07157v2.37078h0.55792zM167.53656,10c1.0705,0 1.84613,0.89853 1.84613,2c0,1 -0.77563,1.83292 -1.83252,1.83292c-1.08405,0 -1.87329,-0.83292 -1.87329,-1.89214c0,-1.03778 0.78925,-1.94078 1.85968,-1.94078zM167.53656,9.57c-1.37891,0 -2.47656,1.05567 -2.47656,2.37078c0,1.34194 1.09766,2.39761 2.47656,2.39761c1.39252,0 2.46344,-1.05567 2.46344,-2.39761c0,-1.31511 -1.07092,-2.36631 -2.46344,-2.37078z" fill="#e84f1c" fill-opacity="1"></path></g></g></g></g></svg>